<svg width="32" height="33" viewBox="0 0 32 33" fill="none" xmlns="http://www.w3.org/2000/svg">
<path fill-rule="evenodd" clip-rule="evenodd" d="M21.2936 5.27783C18.7984 4.15954 16.0102 3.83901 13.3139 4.3728L13.1275 3.43109L13.3139 4.37281C10.331 4.96335 7.64255 6.56347 5.7011 8.9038L5.70109 8.90381C3.75962 11.2441 2.68363 14.1819 2.65424 17.2226C2.62484 20.2633 3.64383 23.2213 5.53968 25.5987L4.89114 26.1159L5.53968 25.5987C7.43555 27.9762 10.0925 29.6279 13.0635 30.276L12.8589 31.214L13.0635 30.276C16.0345 30.9242 19.138 30.529 21.8517 29.1571C24.5655 27.7852 26.7238 25.5203 27.9635 22.7437L28.8401 23.135L27.9635 22.7437C29.2031 19.967 29.4484 16.8481 28.658 13.9117C28.5202 13.3998 28.8235 12.873 29.3354 12.7352C29.8474 12.5974 30.3741 12.9007 30.512 13.4127C31.4171 16.7752 31.1362 20.3467 29.7167 23.5264L28.8697 23.1482L29.7167 23.5264C28.2971 26.706 25.8255 29.2996 22.718 30.8706L22.2848 30.0139L22.7179 30.8706C19.6104 32.4415 16.0564 32.8941 12.6543 32.1519C9.25216 31.4098 6.20956 29.5183 4.03855 26.7958L4.78912 26.1972L4.03855 26.7958C1.86755 24.0733 0.700688 20.686 0.734351 17.204C0.768014 13.7221 2.00015 10.3579 4.2234 7.67795C6.44661 4.99797 9.5252 3.16563 12.9411 2.48938C16.0287 1.87811 19.2215 2.24517 22.0788 3.52577C22.5627 3.74261 22.7791 4.3106 22.5622 4.79442C22.3454 5.27824 21.7774 5.49467 21.2936 5.27783Z" fill="#9F9F9F"/>
<path fill-rule="evenodd" clip-rule="evenodd" d="M21.3092 0.565713C21.8032 0.373293 22.3597 0.617801 22.5521 1.11184L24.3928 5.83791L23.4617 6.16958L20.0101 7.39887C19.5106 7.57674 18.9616 7.31604 18.7837 6.81658C18.6058 6.31712 18.8665 5.76804 19.366 5.59017L21.8863 4.69256L20.763 1.80865C20.5706 1.31462 20.8151 0.758133 21.3092 0.565713Z" fill="#9F9F9F"/>
<path fill-rule="evenodd" clip-rule="evenodd" d="M7.27254 12.0591C7.54696 11.8824 7.89237 11.8572 8.18951 11.9923L16.2854 15.6722C16.6281 15.828 16.8481 16.1697 16.8481 16.5462V26.114C16.8481 26.4404 16.6823 26.7445 16.4079 26.9212C16.1335 27.0979 15.788 27.123 15.4909 26.988L7.39502 23.308C7.05231 23.1522 6.83228 22.8105 6.83228 22.4341V12.8662C6.83228 12.5398 6.99812 12.2358 7.27254 12.0591ZM8.75225 14.3571V21.8159L14.9282 24.6232V17.1643L8.75225 14.3571Z" fill="#9F9F9F"/>
<path fill-rule="evenodd" clip-rule="evenodd" d="M24.5053 12.059C24.7797 12.2357 24.9456 12.5397 24.9456 12.8661V22.434C24.9456 22.8105 24.7255 23.1522 24.3828 23.308L16.2869 26.9879C15.9898 27.123 15.6444 27.0978 15.37 26.9211C15.0955 26.7444 14.9297 26.4404 14.9297 26.114V16.5461C14.9297 16.1696 15.1497 15.8279 15.4924 15.6721L23.5883 11.9922C23.8855 11.8571 24.2309 11.8823 24.5053 12.059ZM16.8497 17.1642V24.6231L23.0256 21.8159V14.357L16.8497 17.1642Z" fill="#9F9F9F"/>
<path fill-rule="evenodd" clip-rule="evenodd" d="M15.4909 8.31237C15.7433 8.19764 16.033 8.19764 16.2854 8.31237L24.3813 11.9923C24.724 12.1481 24.944 12.4898 24.944 12.8663C24.944 13.2427 24.724 13.5844 24.3813 13.7402L16.2854 17.4201C16.033 17.5349 15.7433 17.5349 15.4909 17.4201L7.39502 13.7402C7.05231 13.5844 6.83228 13.2427 6.83228 12.8663C6.83228 12.4898 7.05231 12.1481 7.39502 11.9923L15.4909 8.31237ZM10.1122 12.8663L15.8882 15.4917L21.6641 12.8663L15.8882 10.2408L10.1122 12.8663Z" fill="#9F9F9F"/>
<path d="M20.1019 14.5817L20.4444 13.8281C20.74 13.9625 20.9297 14.2571 20.9297 14.5817H20.1019ZM20.9297 17.5257C20.9297 17.9829 20.5591 18.3536 20.1019 18.3536C19.6447 18.3536 19.274 17.9829 19.274 17.5257H20.9297ZM20.9297 14.5817V17.5257H19.274V14.5817H20.9297ZM12.5879 10.257L20.4444 13.8281L19.7593 15.3354L11.9028 11.7642L12.5879 10.257Z" fill="#9F9F9F"/>
</svg>
