<svg width="33" height="33" viewBox="0 0 33 33" fill="none" xmlns="http://www.w3.org/2000/svg">
<path d="M26.7944 20.569L26.3744 19.948L26.0444 20.171V20.569H26.7944ZM21.5444 22.437L21.9214 21.789L21.7114 21.666L21.4684 21.691L21.5444 22.437ZM26.7934 25.5L26.4154 26.148L27.5434 26.806V25.5H26.7934ZM30.0434 13.5C30.0434 16.078 28.6394 18.415 26.3744 19.948L27.2134 21.19C29.8214 19.426 31.5434 16.655 31.5434 13.5H30.0434ZM20.2934 5.25C25.7914 5.25 30.0434 9.048 30.0434 13.5H31.5434C31.5434 8.01 26.3934 3.75 20.2934 3.75V5.25ZM10.5444 13.5C10.5444 9.048 14.7964 5.25 20.2934 5.25V3.75C14.1934 3.75 9.04443 8.01 9.04443 13.5H10.5444ZM20.2944 21.75C14.7974 21.75 10.5444 17.952 10.5444 13.5H9.04443C9.04443 18.99 14.1944 23.25 20.2944 23.25V21.75ZM21.4684 21.691C21.0834 21.731 20.6924 21.75 20.2944 21.75V23.25C20.7424 23.25 21.1844 23.227 21.6194 23.183L21.4684 21.691ZM27.1724 24.852L21.9214 21.789L21.1664 23.085L26.4154 26.148L27.1724 24.852ZM26.0444 20.569V25.5H27.5434L27.5444 20.569H26.0444Z" fill="#9F9F9F"/>
<path d="M15.7944 14.5C16.3467 14.5 16.7944 14.0523 16.7944 13.5C16.7944 12.9477 16.3467 12.5 15.7944 12.5C15.2421 12.5 14.7944 12.9477 14.7944 13.5C14.7944 14.0523 15.2421 14.5 15.7944 14.5Z" fill="#9F9F9F"/>
<path d="M20.7944 14.5C21.3467 14.5 21.7944 14.0523 21.7944 13.5C21.7944 12.9477 21.3467 12.5 20.7944 12.5C20.2421 12.5 19.7944 12.9477 19.7944 13.5C19.7944 14.0523 20.2421 14.5 20.7944 14.5Z" fill="#9F9F9F"/>
<path d="M25.7944 14.5C26.3467 14.5 26.7944 14.0523 26.7944 13.5C26.7944 12.9477 26.3467 12.5 25.7944 12.5C25.2421 12.5 24.7944 12.9477 24.7944 13.5C24.7944 14.0523 25.2421 14.5 25.7944 14.5Z" fill="#9F9F9F"/>
<path fill-rule="evenodd" clip-rule="evenodd" d="M8.11036 11.397C4.99336 12.639 2.76636 15.36 2.76636 18.632C2.76636 21.08 4.03236 23.24 5.97036 24.682V29.55L7.09836 28.892L11.0984 26.559C11.3714 26.58 11.6484 26.591 11.9274 26.591C14.3734 26.591 16.6394 25.745 18.3074 24.346C17.5924 24.278 16.8994 24.153 16.2334 23.976C15.0184 24.676 13.5434 25.091 11.9274 25.091C11.6144 25.091 11.3054 25.075 11.0024 25.044L10.7594 25.02L10.5494 25.143L7.47036 26.938V23.896L7.14036 23.673C5.36036 22.468 4.26636 20.64 4.26636 18.632C4.26636 16.358 5.69636 14.285 7.90936 13.13C7.92836 12.544 7.99636 11.965 8.11036 11.397Z" fill="#9F9F9F"/>
</svg>
