<svg width="31" height="25" viewBox="0 0 31 25" fill="none" xmlns="http://www.w3.org/2000/svg">
<path fill-rule="evenodd" clip-rule="evenodd" d="M1.75 6.14465V4.14465H29.75C30.3023 4.14465 30.75 4.59237 30.75 5.14465C30.75 5.69694 30.3023 6.14465 29.75 6.14465H1.75Z" fill="#9F9F9F"/>
<path fill-rule="evenodd" clip-rule="evenodd" d="M3.25 0.394653C1.731 0.394653 0.5 1.62565 0.5 3.14465V18.1447C0.5 19.6637 1.731 20.8947 3.25 20.8947H16.224L16.096 19.3947H3.25C2.56 19.3947 2 18.8347 2 18.1447V3.14465C2 2.45465 2.56 1.89465 3.25 1.89465H28.25C28.94 1.89465 29.5 2.45465 29.5 3.14465V9.98865L30.95 10.7087L31 10.7187V3.14465C31 1.62565 29.769 0.394653 28.25 0.394653H3.25Z" fill="#9F9F9F"/>
<path d="M28.3372 20.5816L28.7842 21.1836L28.7952 21.1756L28.8052 21.1666L28.3372 20.5816ZM24.0792 23.7476L24.4512 24.3976L24.4912 24.3766L24.5272 24.3496L24.0792 23.7476ZM23.2792 23.7476L22.8392 24.3546L22.8712 24.3786L22.9072 24.3986L23.2792 23.7476ZM18.9122 20.5816L19.3522 19.9736L19.3262 19.9546L19.2982 19.9386L18.9122 20.5816ZM18.5842 20.0356L17.8372 20.0996L17.8402 20.1296L17.8442 20.1596L18.5842 20.0356ZM18.0022 13.2306L18.7492 13.1666V13.1566L18.0022 13.2306ZM18.5842 12.4306L18.7312 13.1656L18.8292 13.1456L18.9182 13.1016L18.5842 12.4306ZM23.4972 9.9916V9.2416C23.3812 9.2416 23.2672 9.2686 23.1632 9.3196L23.4972 9.9916ZM23.7522 9.9916L24.0852 9.3196C23.9812 9.2686 23.8672 9.2416 23.7522 9.2416V9.9916ZM28.6642 12.4296L28.3312 13.1016L28.4202 13.1456L28.5172 13.1656L28.6642 12.4296ZM29.2472 13.2296L29.9942 13.2986L29.2472 13.2306V13.2296ZM28.6272 20.0356L27.8812 19.9676L27.8722 20.0636L27.8882 20.1586L28.6272 20.0356ZM27.8892 19.9796L23.6322 23.1456L24.5272 24.3496L28.7842 21.1836L27.8892 19.9796ZM23.7072 23.0946L23.6872 23.1046H23.6722C23.6682 23.1036 23.6612 23.1006 23.6512 23.0946L22.9072 24.3986C23.3922 24.6756 23.9662 24.6746 24.4512 24.3976L23.7072 23.0946ZM23.7192 23.1386L19.3522 19.9726L18.4722 21.1876L22.8382 24.3536L23.7192 23.1386ZM19.2982 19.9376C19.3182 19.9496 19.3322 19.9626 19.3382 19.9696L19.3452 19.9766L19.3352 19.9526C19.3302 19.9406 19.3262 19.9266 19.3242 19.9116L17.8442 20.1576C17.9012 20.5006 18.0882 20.9606 18.5262 21.2236L19.2982 19.9376ZM19.3322 19.9706L18.7492 13.1666L17.2552 13.2936L17.8372 20.0996L19.3312 19.9706H19.3322ZM18.7482 13.1546V13.1646L18.7522 13.1576C18.7542 13.1546 18.7552 13.1546 18.7522 13.1556C18.7502 13.1586 18.7422 13.1616 18.7322 13.1646L18.4372 11.6936C17.6772 11.8456 17.1832 12.5746 17.2562 13.3036L18.7482 13.1546ZM18.9182 13.1006L23.8302 10.6626L23.1642 9.3186L18.2512 11.7566L18.9182 13.1006ZM23.4972 10.7406H23.7522V9.2406H23.7502H23.7482H23.7462H23.7422H23.7412H23.7382H23.7372H23.7352H23.7332H23.7312H23.7302H23.7262H23.7242H23.7232H23.7212H23.7202H23.7142H23.7132H23.7112H23.7102H23.7082H23.7062H23.7042H23.7032H23.7012H23.6992H23.6972H23.6962H23.6942H23.6922H23.6902H23.6892H23.6872H23.6852H23.6792H23.6782H23.6762H23.6752H23.6732H23.6712H23.6662H23.6642H23.6622H23.6612H23.6562H23.6542H23.6522H23.6512H23.6472H23.6452H23.6442H23.6422H23.6372H23.6352H23.6292H23.6272H23.6262H23.6222H23.6202H23.6192H23.6142H23.6122H23.6102H23.6092H23.6042H23.6022H23.6002H23.5952H23.5932H23.5922H23.5852H23.5832H23.5812H23.5792H23.5742H23.5722H23.5712H23.5692H23.5672H23.5652H23.5642H23.5622H23.5412H23.5392H23.5372H23.5362H23.5342H23.5322H23.5262H23.5242H23.5222H23.5192H23.5172H23.5132H23.5122H23.5082H23.5042H23.5012H23.4982H23.4962L23.4972 10.7406ZM23.4182 10.6626L28.3312 13.1006L28.9982 11.7566L24.0852 9.3186L23.4182 10.6626ZM28.5182 13.1646L28.5122 13.1616L28.5032 13.1536L28.4992 13.1466C28.4992 13.1456 28.5012 13.1496 28.4992 13.1616L29.9942 13.2986C30.0642 12.5206 29.5552 11.8426 28.8112 11.6936L28.5172 13.1636L28.5182 13.1646ZM28.4992 13.1616L27.8812 19.9676L29.3752 20.1026L29.9942 13.2986L28.4992 13.1616ZM27.8882 20.1586C27.8812 20.1136 27.8832 20.0676 27.8922 20.0256C27.9012 19.9856 27.9152 19.9596 27.9222 19.9486C27.9272 19.9386 27.9292 19.9386 27.9192 19.9486C27.9092 19.9596 27.8932 19.9746 27.8692 19.9946L28.8052 21.1666C29.0182 20.9966 29.4772 20.5666 29.3682 19.9116L27.8882 20.1586Z" fill="#9F9F9F"/>
<path fill-rule="evenodd" clip-rule="evenodd" d="M26.7267 14.5656C27.0465 14.8289 27.0923 15.3016 26.829 15.6214L22.9818 20.2945L20.6921 17.7459C20.4153 17.4378 20.4406 16.9636 20.7488 16.6868C21.0569 16.4099 21.5311 16.4353 21.8079 16.7434L22.9322 17.9948L25.671 14.668C25.9342 14.3482 26.4069 14.3024 26.7267 14.5656Z" fill="#9F9F9F"/>
<path d="M4.25 13.1447H8.25V17.1447H4.25V13.1447Z" fill="#9F9F9F"/>
</svg>
