<svg width="32" height="33" viewBox="0 0 32 33" fill="none" xmlns="http://www.w3.org/2000/svg">
<path fill-rule="evenodd" clip-rule="evenodd" d="M4.89111 26.1911C4.89111 24.4883 6.27048 23.1071 7.97411 23.1071C9.67775 23.1071 11.0571 24.4883 11.0571 26.1911C11.0571 27.8931 9.67754 29.2741 7.97411 29.2741C6.27069 29.2741 4.89111 27.8931 4.89111 26.1911ZM7.97411 24.6071C7.09975 24.6071 6.39111 25.3159 6.39111 26.1911C6.39111 27.0651 7.09954 27.7741 7.97411 27.7741C8.84869 27.7741 9.55711 27.0651 9.55711 26.1911C9.55711 25.3159 8.84848 24.6071 7.97411 24.6071Z" fill="#9F9F9F"/>
<path fill-rule="evenodd" clip-rule="evenodd" d="M4.89111 26.1911C4.89111 24.4883 6.27048 23.1071 7.97411 23.1071C9.67775 23.1071 11.0571 24.4883 11.0571 26.1911C11.0571 27.8931 9.67754 29.2741 7.97411 29.2741C6.27069 29.2741 4.89111 27.8931 4.89111 26.1911ZM7.97411 24.6071C7.09975 24.6071 6.39111 25.3159 6.39111 26.1911C6.39111 27.0651 7.09954 27.7741 7.97411 27.7741C8.84869 27.7741 9.55711 27.0651 9.55711 26.1911C9.55711 25.3159 8.84848 24.6071 7.97411 24.6071ZM19.8231 26.1911C19.8231 24.4881 21.2027 23.1071 22.9071 23.1071C24.6095 23.1071 25.9901 24.4881 25.9901 26.1911C25.9901 27.8933 24.6093 29.2741 22.9071 29.2741C21.2041 29.2741 19.8231 27.8935 19.8231 26.1911ZM22.9071 24.6071C22.0315 24.6071 21.3231 25.3161 21.3231 26.1911C21.3231 27.0646 22.0321 27.7741 22.9071 27.7741C23.7809 27.7741 24.4901 27.0648 24.4901 26.1911C24.4901 25.3161 23.7807 24.6071 22.9071 24.6071Z" fill="#9F9F9F"/>
<path fill-rule="evenodd" clip-rule="evenodd" d="M19.823 26.1911C19.823 24.4881 21.2026 23.1071 22.907 23.1071C24.6094 23.1071 25.99 24.4881 25.99 26.1911C25.99 27.8933 24.6092 29.2741 22.907 29.2741C21.204 29.2741 19.823 27.8935 19.823 26.1911ZM22.907 24.6071C22.0314 24.6071 21.323 25.3161 21.323 26.1911C21.323 27.0646 22.032 27.7741 22.907 27.7741C23.7808 27.7741 24.49 27.0648 24.49 26.1911C24.49 25.3161 23.7806 24.6071 22.907 24.6071Z" fill="#9F9F9F"/>
<path fill-rule="evenodd" clip-rule="evenodd" d="M1.25 6.5C1.25 6.08579 1.58579 5.75 2 5.75H25C25.4142 5.75 25.75 6.08579 25.75 6.5V11.7485L30.3328 14.0179C30.5883 14.1444 30.75 14.4049 30.75 14.69V26.5C30.75 26.9142 30.4142 27.25 30 27.25H25.333V25.75H29.25V15.1555L24.6672 12.8861C24.4117 12.7596 24.25 12.4991 24.25 12.214V7.25H2.75V25.75H5.733V27.25H2C1.58579 27.25 1.25 26.9142 1.25 26.5V6.5ZM10.4 25.534H20.667V27.034H10.4V25.534Z" fill="#9F9F9F"/>
<path fill-rule="evenodd" clip-rule="evenodd" d="M15.479 10.9605C15.777 10.6727 16.2518 10.6811 16.5395 10.979L20.2094 14.7796C20.5217 14.8702 20.75 15.1585 20.75 15.5C20.75 15.7249 20.651 15.9266 20.4943 16.0641C20.4834 16.0765 20.4721 16.0885 20.4603 16.1003L16.5303 20.0303C16.2374 20.3232 15.7626 20.3232 15.4697 20.0303C15.1768 19.7374 15.1768 19.2626 15.4697 18.9697L18.1893 16.25H7C6.58579 16.25 6.25 15.9142 6.25 15.5C6.25 15.0858 6.58579 14.75 7 14.75H18.0956L15.4605 12.021C15.1727 11.723 15.1811 11.2482 15.479 10.9605Z" fill="#9F9F9F"/>
</svg>
